#Comment line ignore any data following # character 
#Hierarchical Translation and Rotation (.htr) file 
[Header]	
#Header keywords are followed by a single value 
FileType HTR		#Single word string
DataType HTRS		#Translation followed by rotation and scale data
FileVersion 1		#integer
NumSegments 84		#integer
NumFrames 2		#integer
DataFrameRate 30		#integer, data frame rate in this file
EulerRotationOrder ZYX
CalibrationUnits mm
RotationUnits Degrees
GlobalAxisofGravity Y
BoneLengthAxis Y
ScaleFactor 1.00
[SegmentNames&Hierarchy]
#CHILD	PARENT
MASTER GLOBAL
root MASTER
chest root
L_mid_tent01 root
R_mid_tent01 root
spine01 root
Bip01_Neck chest
L_humerus chest
R_humerus chest
weapon_bone chest
Bip01_Head Bip01_Neck
eye_left_bone Bip01_Head
eye_right_bone Bip01_Head
L_forearm L_humerus
L_front_hand L_forearm
L_weapon_bone L_forearm
L_front_hand01_01 L_front_hand
L_front_hand02_01 L_front_hand
L_front_hand03_01 L_front_hand
L_front_hand01_02 L_front_hand01_01
L_front_hand02_02 L_front_hand02_01
L_front_hand03_02 L_front_hand03_01
R_forearm R_humerus
R_front_hand R_forearm
R_weapon_bone R_forearm
R_front_hand01_01 R_front_hand
R_front_hand02_01 R_front_hand
R_front_hand03_01 R_front_hand
R_front_hand01_02 R_front_hand01_01
R_front_hand02_02 R_front_hand02_01
R_front_hand03_02 R_front_hand03_01
null_rope01_connect L_mid_tent01
Rope1_Seg01 null_rope01_connect
Rope1_Seg02 Rope1_Seg01
Rope1_Seg03 Rope1_Seg02
Rope1_Seg04 Rope1_Seg03
Rope1_Seg05 Rope1_Seg04
Rope1_Seg06 Rope1_Seg05
Rope1_Seg07 Rope1_Seg06
Rope1_Seg09 Rope1_Seg07
L_mid_hand01 Rope1_Seg09
L_mid_hand02 Rope1_Seg09
L_mid_hand03 Rope1_Seg09
null_rope02_connect R_mid_tent01
Rope2_Seg01 null_rope02_connect
Rope2_Seg02 Rope2_Seg01
Rope2_Seg03 Rope2_Seg02
Rope2_Seg04 Rope2_Seg03
Rope2_Seg05 Rope2_Seg04
Rope2_Seg06 Rope2_Seg05
Rope2_Seg07 Rope2_Seg06
Rope2_Seg09 Rope2_Seg07
R_mid_hand01 Rope2_Seg09
R_mid_hand02 Rope2_Seg09
R_mid_hand03 Rope2_Seg09
spine02 spine01
spine03 spine02
pelvis spine03
null_rope03_connect pelvis
null_rope04_connect pelvis
Rope3_Seg01 null_rope03_connect
Rope3_Seg02 Rope3_Seg01
Rope3_Seg03 Rope3_Seg02
Rope3_Seg04 Rope3_Seg03
Rope3_Seg05 Rope3_Seg04
Rope3_Seg06 Rope3_Seg05
Rope3_Seg07 Rope3_Seg06
Rope3_Seg08 Rope3_Seg07
Rope3_Seg09 Rope3_Seg08
R_rear_hand01 Rope3_Seg09
R_rear_hand02 Rope3_Seg09
R_rear_hand03 Rope3_Seg09
Rope4_Seg01 null_rope04_connect
Rope4_Seg02 Rope4_Seg01
Rope4_Seg03 Rope4_Seg02
Rope4_Seg04 Rope4_Seg03
Rope4_Seg05 Rope4_Seg04
Rope4_Seg06 Rope4_Seg05
Rope4_Seg07 Rope4_Seg06
Rope4_Seg08 Rope4_Seg07
Rope4_Seg09 Rope4_Seg08
L_rear_hand01 Rope4_Seg09
L_rear_hand02 Rope4_Seg09
L_rear_hand03 Rope4_Seg09
[BasePosition]
#SegmentName Tx, Ty, Tz, Rx, Ry, Rz, BoneLength
MASTER 0.000000 0.000000 0.000000 -90.000000 0.000000 0.000000 10.000000 
root 0.000000 0.000000 0.000000 0.000000 0.000000 0.000000 10.000000 
chest 0.000000 0.000000 0.000000 0.000000 0.000000 0.000000 10.000000 
L_mid_tent01 0.000000 0.000000 0.000000 0.000000 0.000000 0.000000 10.000000 
R_mid_tent01 0.000000 0.000000 0.000000 0.000000 0.000000 0.000000 10.000000 
spine01 0.000000 0.000000 0.000000 0.000000 0.000000 0.000000 10.000000 
Bip01_Neck 0.000000 0.000000 0.000000 0.000000 0.000000 0.000000 10.000000 
L_humerus 0.000000 0.000000 0.000000 0.000000 0.000000 0.000000 10.000000 
R_humerus 0.000000 0.000000 0.000000 0.000000 0.000000 0.000000 10.000000 
weapon_bone 0.000000 0.000000 0.000000 0.000000 0.000000 0.000000 10.000000 
Bip01_Head 0.000000 0.000000 0.000000 0.000000 0.000000 0.000000 10.000000 
eye_left_bone 0.000000 0.000000 0.000000 0.000000 0.000000 0.000000 10.000000 
eye_right_bone 0.000000 0.000000 0.000000 0.000000 0.000000 0.000000 10.000000 
L_forearm 0.000000 0.000000 0.000000 0.000000 0.000000 0.000000 10.000000 
L_front_hand 0.000000 0.000000 0.000000 0.000000 0.000000 0.000000 10.000000 
L_weapon_bone 0.000000 0.000000 0.000000 0.000000 0.000000 0.000000 10.000000 
L_front_hand01_01 0.000000 0.000000 0.000000 0.000000 0.000000 0.000000 10.000000 
L_front_hand02_01 0.000000 0.000000 0.000000 0.000000 0.000000 0.000000 10.000000 
L_front_hand03_01 0.000000 0.000000 0.000000 0.000000 0.000000 0.000000 10.000000 
L_front_hand01_02 0.000000 0.000000 0.000000 0.000000 0.000000 0.000000 10.000000 
L_front_hand02_02 0.000000 0.000000 0.000000 0.000000 0.000000 0.000000 10.000000 
L_front_hand03_02 0.000000 0.000000 0.000000 0.000000 0.000000 0.000000 10.000000 
R_forearm 0.000000 0.000000 0.000000 0.000000 0.000000 0.000000 10.000000 
R_front_hand 0.000000 0.000000 0.000000 0.000000 0.000000 0.000000 10.000000 
R_weapon_bone 0.000000 0.000000 0.000000 0.000000 0.000000 0.000000 10.000000 
R_front_hand01_01 0.000000 0.000000 0.000000 0.000000 0.000000 0.000000 10.000000 
R_front_hand02_01 0.000000 0.000000 0.000000 0.000000 0.000000 0.000000 10.000000 
R_front_hand03_01 0.000000 0.000000 0.000000 0.000000 0.000000 0.000000 10.000000 
R_front_hand01_02 0.000000 0.000000 0.000000 0.000000 0.000000 0.000000 10.000000 
R_front_hand02_02 0.000000 0.000000 0.000000 0.000000 0.000000 0.000000 10.000000 
R_front_hand03_02 0.000000 0.000000 0.000000 0.000000 0.000000 0.000000 10.000000 
null_rope01_connect 0.000000 0.000000 0.000000 0.000000 0.000000 0.000000 10.000000 
Rope1_Seg01 0.000000 0.000000 0.000000 0.000000 0.000000 0.000000 10.000000 
Rope1_Seg02 0.000000 0.000000 0.000000 0.000000 0.000000 0.000000 10.000000 
Rope1_Seg03 0.000000 0.000000 0.000000 0.000000 0.000000 0.000000 10.000000 
Rope1_Seg04 0.000000 0.000000 0.000000 0.000000 0.000000 0.000000 10.000000 
Rope1_Seg05 0.000000 0.000000 0.000000 0.000000 0.000000 0.000000 10.000000 
Rope1_Seg06 0.000000 0.000000 0.000000 0.000000 0.000000 0.000000 10.000000 
Rope1_Seg07 0.000000 0.000000 0.000000 0.000000 0.000000 0.000000 10.000000 
Rope1_Seg09 0.000000 0.000000 0.000000 0.000000 0.000000 0.000000 10.000000 
L_mid_hand01 0.000000 0.000000 0.000000 0.000000 0.000000 0.000000 10.000000 
L_mid_hand02 0.000000 0.000000 0.000000 0.000000 0.000000 0.000000 10.000000 
L_mid_hand03 0.000000 0.000000 0.000000 0.000000 0.000000 0.000000 10.000000 
null_rope02_connect 0.000000 0.000000 0.000000 0.000000 0.000000 0.000000 10.000000 
Rope2_Seg01 0.000000 0.000000 0.000000 0.000000 0.000000 0.000000 10.000000 
Rope2_Seg02 0.000000 0.000000 0.000000 0.000000 0.000000 0.000000 10.000000 
Rope2_Seg03 0.000000 0.000000 0.000000 0.000000 0.000000 0.000000 10.000000 
Rope2_Seg04 0.000000 0.000000 0.000000 0.000000 0.000000 0.000000 10.000000 
Rope2_Seg05 0.000000 0.000000 0.000000 0.000000 0.000000 0.000000 10.000000 
Rope2_Seg06 0.000000 0.000000 0.000000 0.000000 0.000000 0.000000 10.000000 
Rope2_Seg07 0.000000 0.000000 0.000000 0.000000 0.000000 0.000000 10.000000 
Rope2_Seg09 0.000000 0.000000 0.000000 0.000000 0.000000 0.000000 10.000000 
R_mid_hand01 0.000000 0.000000 0.000000 0.000000 0.000000 0.000000 10.000000 
R_mid_hand02 0.000000 0.000000 0.000000 0.000000 0.000000 0.000000 10.000000 
R_mid_hand03 0.000000 0.000000 0.000000 0.000000 0.000000 0.000000 10.000000 
spine02 0.000000 0.000000 0.000000 0.000000 0.000000 0.000000 10.000000 
spine03 0.000000 0.000000 0.000000 0.000000 0.000000 0.000000 10.000000 
pelvis 0.000000 0.000000 0.000000 0.000000 0.000000 0.000000 10.000000 
null_rope03_connect 0.000000 0.000000 0.000000 0.000000 0.000000 0.000000 10.000000 
null_rope04_connect 0.000000 0.000000 0.000000 0.000000 0.000000 0.000000 10.000000 
Rope3_Seg01 0.000000 0.000000 0.000000 0.000000 0.000000 0.000000 10.000000 
Rope3_Seg02 0.000000 0.000000 0.000000 0.000000 0.000000 0.000000 10.000000 
Rope3_Seg03 0.000000 0.000000 0.000000 0.000000 0.000000 0.000000 10.000000 
Rope3_Seg04 0.000000 0.000000 0.000000 0.000000 0.000000 0.000000 10.000000 
Rope3_Seg05 0.000000 0.000000 0.000000 0.000000 0.000000 0.000000 10.000000 
Rope3_Seg06 0.000000 0.000000 0.000000 0.000000 0.000000 0.000000 10.000000 
Rope3_Seg07 0.000000 0.000000 0.000000 0.000000 0.000000 0.000000 10.000000 
Rope3_Seg08 0.000000 0.000000 0.000000 0.000000 0.000000 0.000000 10.000000 
Rope3_Seg09 0.000000 0.000000 0.000000 0.000000 0.000000 0.000000 10.000000 
R_rear_hand01 0.000000 0.000000 0.000000 0.000000 0.000000 0.000000 10.000000 
R_rear_hand02 0.000000 0.000000 0.000000 0.000000 0.000000 0.000000 10.000000 
R_rear_hand03 0.000000 0.000000 0.000000 0.000000 0.000000 0.000000 10.000000 
Rope4_Seg01 0.000000 0.000000 0.000000 0.000000 0.000000 0.000000 10.000000 
Rope4_Seg02 0.000000 0.000000 0.000000 0.000000 0.000000 0.000000 10.000000 
Rope4_Seg03 0.000000 0.000000 0.000000 0.000000 0.000000 0.000000 10.000000 
Rope4_Seg04 0.000000 0.000000 0.000000 0.000000 0.000000 0.000000 10.000000 
Rope4_Seg05 0.000000 0.000000 0.000000 0.000000 0.000000 0.000000 10.000000 
Rope4_Seg06 0.000000 0.000000 0.000000 0.000000 0.000000 0.000000 10.000000 
Rope4_Seg07 0.000000 0.000000 0.000000 0.000000 0.000000 0.000000 10.000000 
Rope4_Seg08 0.000000 0.000000 0.000000 0.000000 0.000000 0.000000 10.000000 
Rope4_Seg09 0.000000 0.000000 0.000000 0.000000 0.000000 0.000000 10.000000 
L_rear_hand01 0.000000 0.000000 0.000000 0.000000 0.000000 0.000000 10.000000 
L_rear_hand02 0.000000 0.000000 0.000000 0.000000 0.000000 0.000000 10.000000 
L_rear_hand03 0.000000 0.000000 0.000000 0.000000 0.000000 0.000000 10.000000 
#Beginning of Data. Separated by tabs
#Fr	Tx	Ty	Tz	Rx	Ry	Rz	SF
[MASTER]
27 -0.000981 6564.547852 -126.399521 0.001660 0.001660 0.001660 6565.764648
28 -0.001024 6848.299805 -47.080063 0.001660 0.001660 0.001660 6848.461914
[root]
27 -167.137543 455.314972 1759.007202 -105.760406 -24.791792 -30.206064 1824.651489
28 -167.744553 457.402832 1764.007935 -104.992004 -23.925341 -32.283848 1830.048950
[chest]
27 -84.512650 -34.090519 0.000000 0.917588 0.472397 -177.420853 91.129311
28 -84.512650 -34.090519 0.000000 -0.928447 1.000902 -177.165512 91.129311
[L_mid_tent01]
27 27.299286 22.178928 -249.918655 -22.745104 42.823223 21.003059 252.381638
28 27.299276 22.178988 -249.918686 -22.679701 46.761719 21.850788 252.381683
[R_mid_tent01]
27 23.228794 24.509907 226.238495 156.315247 -28.100899 91.240639 228.744751
28 23.228794 24.509907 226.238495 166.101364 -18.246548 77.742256 228.744751
[spine01]
27 -0.361383 -0.195265 0.000000 0.236695 0.096724 20.649004 0.410763
28 -0.361383 -0.195265 0.000000 0.213428 0.087472 20.775305 0.410763
[Bip01_Neck]
27 165.484543 71.581718 0.000119 175.896118 1.177290 24.871183 180.302734
28 165.484543 71.581718 0.000119 175.896118 1.177290 24.871183 180.302734
[L_humerus]
27 -13.983130 -135.272980 -120.471481 -9.700579 79.729919 80.366913 181.680161
28 -13.983130 -135.272980 -120.471481 -8.973738 78.733131 81.092331 181.680161
[R_humerus]
27 -13.983309 -135.273102 125.287651 77.197586 -40.361855 11.813342 184.909012
28 -13.983309 -135.273102 125.287651 78.441132 -47.544144 10.155165 184.909012
[weapon_bone]
27 235.964890 -300.705902 0.000000 0.000000 -89.951546 -128.212341 382.234833
28 235.964890 -300.705902 0.000000 0.000000 -89.951546 -128.212341 382.234833
[Bip01_Head]
27 234.494919 205.995331 -10.672607 -46.800961 9.476991 -58.974346 312.307312
28 234.185181 207.113632 -10.718994 -46.670269 10.810086 -57.688244 312.815704
[eye_left_bone]
27 -24.626970 125.451866 -64.772606 0.000000 -90.000000 -99.840431 143.318359
28 -24.626970 125.451866 -64.772606 0.000000 -90.000000 -99.840431 143.318359
[eye_right_bone]
27 -24.626970 125.451866 64.327362 0.000000 -89.960434 80.159386 143.117676
28 -24.626970 125.451866 64.327362 0.000000 -89.960434 80.159386 143.117676
[L_forearm]
27 322.776093 0.000000 -0.000119 0.000328 -0.002324 -106.056412 322.776093
28 322.776093 0.000000 -0.000119 0.000333 -0.002323 -106.330261 322.776093
[L_front_hand]
27 241.149185 -0.042021 -3.300071 -178.667953 -1.835447 -27.422350 241.171753
28 241.149185 -0.042021 -3.300071 -178.667953 -1.835447 -27.422350 241.171753
[L_weapon_bone]
27 156.183838 0.000000 0.000000 0.000014 0.000007 0.000001 156.183838
28 156.183838 0.000000 0.000000 0.000014 0.000007 0.000001 156.183838
[L_front_hand01_01]
27 86.095154 20.947098 -0.655860 -0.366594 -0.477154 75.385574 88.609184
28 86.095154 20.947098 -0.655860 -0.366594 -0.477154 75.385574 88.609184
[L_front_hand02_01]
27 86.935165 -11.437475 24.513514 154.403519 -59.888931 -61.371990 91.046425
28 86.935165 -11.437475 24.513514 154.403519 -59.888931 -61.371990 91.046425
[L_front_hand03_01]
27 86.637497 -14.123976 -20.424902 -153.913849 58.118122 -62.702866 90.126129
28 86.637497 -14.123976 -20.424902 -153.913849 58.118122 -62.702866 90.126129
[L_front_hand01_02]
27 71.020905 -0.000179 0.000030 0.000334 -0.002323 -106.379684 71.020905
28 71.020905 -0.000179 0.000030 0.000334 -0.002323 -106.379684 71.020905
[L_front_hand02_02]
27 71.020927 -0.000119 0.000060 0.000334 -0.002323 -106.379684 71.020927
28 71.020927 -0.000119 0.000060 0.000334 -0.002323 -106.379684 71.020927
[L_front_hand03_02]
27 71.020905 -0.000060 0.000060 0.000334 -0.002323 -106.379684 71.020905
28 71.020905 -0.000060 0.000060 0.000334 -0.002323 -106.379684 71.020905
[R_forearm]
27 322.776428 -0.000060 0.000030 -0.024579 -0.209982 6.206587 322.776428
28 322.776428 -0.000060 0.000030 -0.001384 -0.211026 -1.032197 322.776428
[R_front_hand]
27 238.847015 -0.006795 2.210259 75.960007 8.921104 -15.862157 238.857239
28 238.847015 -0.006795 2.210259 71.540878 10.578566 -18.966702 238.857239
[R_weapon_bone]
27 155.664093 0.002503 -0.000030 0.003487 0.001180 -90.988930 155.664078
28 155.664093 0.002503 -0.000030 0.003487 0.001180 -90.988930 155.664078
[R_front_hand01_01]
27 87.624611 14.231146 22.918642 -154.633499 -59.950619 61.746044 91.683487
28 87.624611 14.231146 22.918642 -154.633499 -59.950619 61.746044 91.683487
[R_front_hand02_01]
27 89.356956 14.367283 -19.491137 154.602661 58.302849 63.744389 92.579636
28 89.356956 14.367283 -19.491137 154.602661 58.302849 63.744389 92.579636
[R_front_hand03_01]
27 87.286232 -22.307278 -0.143439 0.162155 -0.423168 -75.767921 90.091743
28 87.286232 -22.307278 -0.143439 0.162155 -0.423168 -75.767921 90.091743
[R_front_hand01_02]
27 71.020905 0.000060 0.000119 0.002323 -0.000334 106.381714 71.020905
28 71.020905 0.000060 0.000119 0.002323 -0.000334 106.381714 71.020905
[R_front_hand02_02]
27 71.020844 -0.000030 -0.000119 0.002323 -0.000334 106.381714 71.020836
28 71.020844 -0.000030 -0.000119 0.002323 -0.000334 106.381714 71.020836
[R_front_hand03_02]
27 71.020905 0.000000 0.000030 0.002323 -0.000334 106.381714 71.020905
28 71.020905 0.000000 0.000030 0.002323 -0.000334 106.381714 71.020905
[null_rope01_connect]
27 328.732483 0.000000 -0.000238 172.647141 -60.315788 -66.575020 328.732483
28 328.732483 0.000000 -0.000238 -178.364212 -60.543781 -78.266960 328.732483
[Rope1_Seg01]
27 0.000000 0.000000 0.000000 14.540865 -15.172652 -93.384178 0.000000
28 0.000000 0.000000 0.000000 12.551627 -10.428764 -94.061264 0.000000
[Rope1_Seg02]
27 139.999863 -0.000179 0.000000 11.200364 -1.586540 -12.768048 139.999863
28 139.999863 -0.000179 0.000000 10.197138 0.737366 -11.951052 139.999863
[Rope1_Seg03]
27 139.999924 0.000060 -0.000060 49.604412 -10.378202 -32.810478 139.999924
28 139.999924 0.000060 -0.000060 55.396988 -3.622595 -30.417780 139.999924
[Rope1_Seg04]
27 139.999924 -0.000060 -0.000119 37.172211 -35.660095 -17.828266 139.999924
28 139.999924 -0.000060 -0.000119 48.515881 -35.887093 -20.147022 139.999924
[Rope1_Seg05]
27 139.999832 0.000119 -0.000060 6.646432 -25.797775 1.024204 139.999832
28 139.999832 0.000119 -0.000060 6.658389 -23.882196 3.798866 139.999832
[Rope1_Seg06]
27 139.999954 0.000119 -0.000060 -0.207666 -27.022240 2.818923 139.999954
28 139.999954 0.000119 -0.000060 1.157191 -25.166096 4.204055 139.999954
[Rope1_Seg07]
27 139.999985 0.000060 0.000000 -2.115750 -12.240927 1.606656 139.999985
28 139.999985 0.000060 0.000000 -1.607183 -13.818507 3.076552 139.999985
[Rope1_Seg09]
27 121.602913 0.000119 -0.000089 -89.793175 -1.359789 0.847147 121.602913
28 121.602913 0.000119 -0.000089 -89.793175 -1.359789 0.847147 121.602913
[L_mid_hand01]
27 103.859421 1.038730 8.195221 114.520287 -53.310486 -20.623234 104.187431
28 103.859421 1.038730 8.195221 114.520287 -53.310486 -20.623234 104.187431
[L_mid_hand02]
27 105.572853 -4.139662 -10.864139 -155.067673 38.166626 -52.448818 106.211075
28 105.572853 -4.139662 -10.864139 -155.067673 38.166634 -52.448826 106.211075
[L_mid_hand03]
27 104.641464 17.579376 -3.913581 -10.970130 15.317461 57.626949 106.179977
28 104.641464 17.579376 -3.913581 -10.970130 15.317461 57.626949 106.179977
[null_rope02_connect]
27 328.732849 0.000179 -0.000119 -91.185463 3.989865 63.408226 328.732849
28 328.732849 0.000179 -0.000119 -82.691383 16.180895 56.920494 328.732849
[Rope2_Seg01]
27 0.000029 -0.000384 0.000107 -21.307789 -8.801126 -13.870523 0.000399
28 0.000031 -0.000404 0.000111 -20.151440 -12.604663 -11.938655 0.000420
[Rope2_Seg02]
27 139.999741 -0.000060 -0.000119 -7.200725 2.685738 5.436101 139.999756
28 139.999741 -0.000060 -0.000119 -8.018613 3.069537 7.325578 139.999756
[Rope2_Seg03]
27 140.000107 0.000030 0.000000 -18.012352 5.551783 16.366213 140.000107
28 140.000107 0.000030 0.000000 -15.928462 4.653504 18.207438 140.000107
[Rope2_Seg04]
27 139.999802 0.000000 -0.000060 -26.312441 0.077944 69.007263 139.999802
28 139.999802 0.000000 -0.000060 -19.895695 -2.386652 48.324440 139.999802
[Rope2_Seg05]
27 139.999985 -0.000060 0.000119 1.336401 -13.518826 29.391056 139.999985
28 139.999985 -0.000060 0.000119 -2.050267 -10.075653 28.157881 139.999985
[Rope2_Seg06]
27 139.999893 -0.000030 -0.000119 4.691492 -4.134997 11.765901 139.999893
28 139.999893 -0.000030 -0.000119 3.689954 -2.994542 16.385897 139.999893
[Rope2_Seg07]
27 139.999893 0.000060 -0.000060 8.380732 -3.570043 13.776021 139.999893
28 139.999893 0.000060 -0.000060 7.081986 -2.082105 17.651718 139.999893
[Rope2_Seg09]
27 121.338966 0.000089 -0.000060 136.879395 0.546403 -1.506368 121.338966
28 121.338966 0.000089 -0.000060 136.879395 0.546403 -1.506368 121.338966
[R_mid_hand01]
27 104.680779 11.144459 -10.335981 -37.864319 31.078991 36.311810 105.778534
28 104.680779 11.144459 -10.335981 -38.620110 30.064602 34.822529 105.778534
[R_mid_hand02]
27 104.070427 2.443552 8.231699 70.765930 -41.145245 13.465270 104.424065
28 104.070427 2.443552 8.231699 71.221657 -39.603447 12.765283 104.424065
[R_mid_hand03]
27 106.028137 -11.221827 -5.996406 -169.605835 11.984279 -45.843296 106.788818
28 106.028137 -11.221827 -5.996406 -169.274506 11.687648 -44.202805 106.788818
[spine02]
27 129.756927 0.001550 0.000119 -0.254289 -14.054245 -4.313314 129.756927
28 129.756927 0.001550 0.000119 -0.184164 -13.521109 -4.778936 129.756927
[spine03]
27 78.581818 0.088485 -5.214715 1.499148 4.177047 10.769514 78.754700
28 78.584793 0.087834 -5.186012 1.541763 4.135794 11.348886 78.755775
[pelvis]
27 169.435242 0.051022 0.000000 -0.057957 -0.272081 10.438375 169.435257
28 169.435242 0.051022 0.000000 -0.057497 -0.258470 10.779030 169.435257
[null_rope03_connect]
27 -1.257226 -2.466202 137.391083 106.653053 -25.821039 -21.875448 137.418976
28 -1.257226 -2.466202 137.391083 106.056633 -27.904358 -23.430481 137.418976
[null_rope04_connect]
27 -1.259640 -2.480268 -137.844437 106.653053 -25.821039 -21.875448 137.872513
28 -1.259640 -2.480268 -137.844437 106.056633 -27.904358 -23.430481 137.872513
[Rope3_Seg01]
27 -0.000022 -0.000440 0.000000 54.229450 -57.078335 67.828178 0.000441
28 -0.000022 -0.000456 0.000000 86.856560 -69.017632 43.149616 0.000456
[Rope3_Seg02]
27 139.999924 -0.000119 0.000060 -9.231010 12.600136 -6.972446 139.999924
28 139.999924 -0.000119 0.000060 -7.109790 7.475265 -6.584088 139.999924
[Rope3_Seg03]
27 139.999924 -0.000119 0.000119 -10.211471 17.733538 -6.772932 139.999924
28 139.999924 -0.000119 0.000119 -11.465880 12.755460 -8.936655 139.999924
[Rope3_Seg04]
27 139.999924 0.000119 0.000000 -8.342513 17.401016 -7.279362 139.999924
28 139.999924 0.000119 0.000000 -15.017353 18.701136 -11.039993 139.999924
[Rope3_Seg05]
27 139.999924 -0.000238 0.000060 -2.837968 13.159081 -0.056849 139.999924
28 139.999924 -0.000238 0.000060 -9.482469 17.448328 -5.981216 139.999924
[Rope3_Seg06]
27 139.999893 -0.000119 -0.000060 0.690631 13.014978 7.472686 139.999893
28 139.999893 -0.000119 -0.000060 -2.218357 16.241556 4.518328 139.999893
[Rope3_Seg07]
27 139.999771 0.000060 -0.000119 2.706751 13.437178 10.120726 139.999771
28 139.999771 0.000060 -0.000119 3.081080 20.553530 13.353324 139.999771
[Rope3_Seg08]
27 139.999985 -0.000060 0.000000 2.555435 7.975452 4.108088 139.999985
28 139.999985 -0.000060 0.000000 3.881491 13.418410 6.889395 139.999985
[Rope3_Seg09]
27 90.185997 -0.000179 -0.000060 -24.489500 -1.359427 -0.848001 90.185997
28 90.185997 -0.000179 -0.000060 36.937958 -1.357603 -0.848002 90.185997
[R_rear_hand01]
27 103.366196 -6.073594 -10.757982 -177.714203 24.565960 -73.910950 104.101845
28 103.366196 -6.073594 -10.757982 -177.714203 24.565960 -73.910950 104.101845
[R_rear_hand02]
27 100.509819 12.039542 -7.992327 -12.874829 36.868488 72.167213 101.543350
28 100.509819 12.039542 -7.992327 -12.874829 36.868488 72.167213 101.543350
[R_rear_hand03]
27 101.539970 5.215704 5.435467 71.484581 -71.816628 21.513813 101.819031
28 101.539970 5.215704 5.435467 71.484581 -71.816628 21.513813 101.819031
[Rope4_Seg01]
27 -0.000006 -0.000452 -0.000153 46.721870 -42.731777 -96.047966 0.000477
28 -0.000005 -0.000466 -0.000153 53.657921 -38.847279 -108.293999 0.000490
[Rope4_Seg02]
27 139.999985 0.000060 0.000119 0.972779 7.081708 15.834849 139.999985
28 139.999985 0.000060 0.000119 2.150560 6.327300 13.372571 139.999985
[Rope4_Seg03]
27 139.999924 0.000000 -0.000238 -4.916488 17.434099 35.069157 139.999924
28 139.999924 0.000000 -0.000238 0.522575 13.627863 25.046597 139.999924
[Rope4_Seg04]
27 139.999985 0.000000 0.000119 -29.881775 7.681876 33.068668 139.999985
28 139.999985 0.000000 0.000119 -8.867110 13.196540 25.941904 139.999985
[Rope4_Seg05]
27 139.999802 -0.000060 -0.000119 -38.749588 -22.198988 30.702534 139.999802
28 139.999802 -0.000060 -0.000119 -34.988018 -2.140892 33.296623 139.999802
[Rope4_Seg06]
27 139.999924 0.000000 0.000060 -7.962733 -18.562647 6.983510 139.999924
28 139.999924 0.000000 0.000060 -23.982693 -16.467850 20.243765 139.999924
[Rope4_Seg07]
27 139.999802 0.000000 0.000000 -1.647482 -8.076643 2.215572 139.999802
28 139.999802 0.000000 0.000000 -6.096357 -9.273720 5.750606 139.999802
[Rope4_Seg08]
27 139.999924 0.000000 0.000119 -2.037594 -4.032903 0.989091 139.999924
28 139.999924 0.000000 0.000119 -3.706926 -4.696745 2.288377 139.999924
[Rope4_Seg09]
27 90.185791 0.000060 0.000060 -135.617828 2.228885 0.850567 90.185791
28 90.185791 0.000060 0.000060 -135.617828 2.228885 0.850567 90.185791
[L_rear_hand01]
27 101.696655 -8.392275 -7.654577 -19.915020 -33.950905 119.950104 102.329041
28 101.696655 -8.392275 -7.654577 -19.915020 -33.950905 119.950104 102.329041
[L_rear_hand02]
27 102.726799 -1.568258 5.773216 77.862221 61.878510 165.399200 102.900848
28 102.726799 -1.568258 5.773216 77.862221 61.878510 165.399200 102.900848
[L_rear_hand03]
27 104.552910 9.721220 -10.420293 -173.099182 -23.740307 -117.327896 105.519653
28 104.552910 9.721220 -10.420293 -173.099182 -23.740307 -117.327896 105.519653
